<?xml version="1.0" encoding="UTF-8"?>
<svg id="Layer_1" data-name="Layer 1" xmlns="http://www.w3.org/2000/svg" viewBox="0 0 121.74 132.12">
  <defs>
    <style>
      .cls-1 {
        fill: #c82127;
      }

      .cls-2 {
        fill: #010101;
      }

      .cls-3 {
        fill: #a4a6a8;
      }
    </style>
  </defs>
  <path class="cls-2" d="M115.27,41.92H17.54c-2.11,0-3.98,1.36-4.64,3.36L.25,83.7c-1.04,3.16,1.31,6.42,4.64,6.42h98.63c2.15,0,4.05-1.4,4.67-3.46l11.75-38.42c.96-3.14-1.39-6.32-4.67-6.32ZM35.44,84.96h-18.37l1.9-6.32s12.51-.18,16.26-.18,6.04-2.22,7.66-5.73c1.62-3.5-.98-3.74-1.97-3.74h-13.74c-6.44,0-5.81-9.81-.98-15.96,4.83-6.16,13.28-5.93,13.28-5.93h17.3l-2.09,6.61h-12.22c-10.94,0-11.92,5.22-11.97,6.82-.05,1.6,1.38,2.38,2.63,2.38h12.54c8.1,0,7.09,8.78,2.16,15.31-4.92,6.54-12.39,6.75-12.39,6.75ZM94.76,85.33h-8.74l5.88-22.27-13,22.27h-10.1l-2.71-23.32-5.99,23.32h-8.74l10.16-38.24h14l1.37,23.79,15.77-23.79h14.5l-12.42,38.24Z"/>
  <path class="cls-3" d="M72.39,0h-30.86c-2.11,0-3.97,1.37-4.59,3.39l-11.03,35.71h40.91l10.15-32.88c.95-3.09-1.36-6.22-4.59-6.22Z"/>
  <path class="cls-3" d="M51.37,93.02H10.45L.3,125.9c-.95,3.09,1.36,6.22,4.59,6.22h30.86c2.11,0,3.97-1.37,4.59-3.39l11.03-35.71Z"/>
  <path class="cls-1" d="M116.93,0h-30.86c-2.11,0-3.97,1.37-4.59,3.39l-11.03,35.71h40.91l10.15-32.88c.95-3.09-1.36-6.22-4.59-6.22Z"/>
  <path class="cls-1" d="M95.56,93.02h-40.91l-10.15,32.8c-.95,3.09,1.36,6.22,4.59,6.22h30.86c2.11,0,3.97-1.37,4.59-4.69l11.03-34.34Z"/>
</svg>